<?xml version="1.0" standalone="no"?>
<!DOCTYPE svg PUBLIC "-//W3C//DTD SVG 20010904//EN"
 "http://www.w3.org/TR/2001/REC-SVG-20010904/DTD/svg10.dtd">
<svg version="1.0" xmlns="http://www.w3.org/2000/svg"
 width="707.000000pt" height="353.000000pt" viewBox="0 0 707.000000 353.000000"
 preserveAspectRatio="xMidYMid meet">

<g transform="translate(0.000000,353.000000) scale(0.100000,-0.100000)"
fill="#000000" stroke="none">
<path d="M4943 2571 c-7 -10 -36 -30 -65 -44 -79 -38 -134 -81 -175 -139 -39
-54 -51 -88 -30 -88 6 0 30 5 52 10 32 7 41 6 49 -7 7 -13 10 -13 17 -2 5 8 9
10 9 4 -1 -5 -16 -36 -34 -69 -27 -45 -35 -54 -39 -40 -4 14 -5 12 -4 -6 1
-29 -23 -100 -35 -100 -4 0 -8 -6 -8 -14 0 -8 -6 -21 -12 -28 -18 -19 -33 -44
-62 -103 -23 -47 -39 -72 -144 -225 -24 -35 -52 -80 -62 -99 -10 -20 -32 -54
-49 -76 -17 -22 -38 -51 -48 -64 -10 -13 -30 -38 -45 -56 -16 -18 -28 -38 -28
-45 0 -8 -3 -11 -6 -8 -7 8 -80 -64 -79 -77 1 -5 0 -7 -2 -2 -3 4 -10 7 -17 7
-12 0 -86 225 -86 261 0 8 -5 21 -10 29 -7 11 -8 5 -4 -20 4 -23 3 -31 -4 -22
-7 11 -10 10 -16 -3 -4 -12 -10 -14 -19 -7 -6 5 -27 12 -46 14 l-33 5 6 -47
c4 -26 16 -83 28 -126 12 -44 22 -97 21 -119 -1 -31 1 -36 8 -20 7 15 8 12 4
-12 -4 -32 8 -46 18 -20 4 7 6 8 6 1 1 -6 -6 -17 -14 -24 -12 -10 -15 -10 -15
0 0 7 -6 10 -14 7 -8 -3 -18 5 -25 19 -6 13 -15 24 -21 24 -14 0 -42 59 -36
76 3 8 2 13 -3 10 -9 -6 -66 105 -77 150 -4 16 -10 34 -15 39 -4 6 -7 12 -8
15 0 3 -2 12 -5 20 -15 39 -146 444 -166 510 -12 41 -25 82 -28 90 -11 30 -13
56 -6 80 6 25 6 25 18 -7 9 -25 14 -30 26 -23 13 9 13 10 0 11 -8 0 -2 5 14 9
23 7 32 5 42 -8 12 -15 13 -13 14 16 0 17 -4 32 -10 32 -5 0 -10 6 -10 13 0
28 -65 131 -114 181 -64 66 -113 92 -191 100 -112 13 -227 -17 -368 -98 l-78
-45 -39 38 c-21 21 -66 52 -98 69 -52 28 -70 32 -137 32 -56 0 -81 -4 -92 -16
-9 -8 -24 -13 -34 -11 -10 3 -18 2 -17 -2 2 -18 -3 -22 -16 -12 -11 9 -16 9
-22 0 -4 -8 -3 -9 4 -5 7 4 12 5 12 3 0 -5 -68 -47 -76 -47 -3 0 -2 5 2 12 4
6 -3 4 -16 -5 -28 -19 -37 -52 -13 -42 9 3 -7 -17 -35 -45 -28 -27 -48 -50
-46 -50 3 0 -8 -17 -24 -37 -16 -21 -52 -74 -80 -118 -28 -44 -56 -85 -61 -92
-6 -7 -11 -16 -11 -20 0 -4 -8 -17 -17 -28 -15 -20 -15 -20 -10 3 3 12 1 22
-5 22 -6 0 -8 -14 -4 -35 6 -30 4 -35 -12 -35 -11 0 -23 -7 -26 -16 -10 -26
-6 -30 9 -10 13 17 15 17 15 4 0 -9 -7 -23 -15 -31 -8 -8 -11 -17 -8 -21 3 -3
-1 -8 -10 -12 -9 -3 -14 -11 -11 -19 3 -7 -4 -15 -15 -18 -12 -3 -21 -10 -21
-17 0 -6 5 -8 10 -5 6 4 5 -5 -2 -20 -8 -18 -14 -22 -20 -13 -8 14 -12 4 -8
-26 1 -12 -3 -16 -10 -11 -9 5 -10 1 -6 -13 4 -11 2 -23 -4 -27 -5 -3 -10 0
-11 7 0 7 -2 24 -4 38 -3 28 9 57 22 52 4 -2 9 2 12 9 2 7 -1 9 -8 5 -6 -4 -2
9 9 29 11 19 20 42 20 50 0 8 5 15 11 15 5 0 8 4 4 9 -3 5 0 16 7 23 14 14 30
42 71 118 14 25 34 54 46 64 12 11 21 24 21 30 0 7 9 20 21 29 11 10 18 24 15
32 -3 10 0 12 12 8 15 -6 15 -5 3 10 -12 15 -12 17 1 12 8 -3 21 1 28 10 7 8
9 15 4 15 -5 0 2 7 14 16 12 8 20 20 16 25 -3 5 -2 9 3 8 4 -1 15 -1 23 0 13
1 13 2 0 11 -13 8 -12 10 3 10 9 0 17 5 17 11 0 5 -5 7 -12 3 -7 -4 -8 -3 -4
5 5 8 12 9 20 2 12 -10 38 12 44 37 6 29 -27 5 -127 -95 -194 -193 -357 -445
-509 -783 -55 -124 -173 -464 -187 -542 -6 -34 -5 -38 13 -38 24 0 29 6 82
105 67 125 101 185 106 185 3 0 2 -5 -2 -12 -4 -6 -8 -23 -10 -37 -1 -14 -9
-69 -18 -121 -9 -52 -16 -101 -16 -108 0 -11 29 -13 153 -9 168 5 178 6 199
27 8 8 30 26 49 39 30 21 99 101 99 116 0 3 11 22 24 43 12 20 27 48 31 61 4
14 12 29 17 35 5 6 23 33 41 60 18 27 35 54 39 60 4 6 19 37 34 68 19 40 31
55 41 51 13 -5 13 -3 2 14 -10 18 -22 20 -91 19 -74 -1 -92 6 -71 28 5 4 8 11
9 14 2 18 28 62 37 62 6 0 8 3 4 6 -8 8 100 172 209 319 88 120 333 375 359
375 7 0 19 -17 26 -37 24 -76 27 -79 59 -48 l28 27 30 -54 c16 -29 37 -70 47
-90 11 -24 22 -35 31 -31 8 3 14 -1 14 -8 0 -11 3 -11 10 1 23 34 77 -71 186
-362 53 -143 100 -258 131 -328 14 -30 29 -65 34 -77 36 -94 171 -264 245
-309 18 -11 17 -13 -11 -24 -72 -28 -181 29 -260 135 -17 22 -32 42 -35 45 -3
3 -21 29 -39 58 -21 34 -37 49 -41 42 -5 -8 -13 -5 -24 11 -12 18 -16 20 -16
7 0 -11 -10 -18 -27 -20 -16 -2 -27 -8 -25 -15 1 -7 -3 -13 -9 -13 -20 0 46
-104 106 -165 45 -46 75 -67 118 -83 56 -21 71 -22 512 -22 422 0 458 1 505
19 73 28 169 101 246 186 95 105 203 256 196 274 -3 9 -1 12 6 7 17 -10 23 10
7 24 -21 18 -19 37 10 65 13 14 21 25 18 25 -4 0 -2 5 5 12 7 7 12 25 12 41 0
15 4 26 9 23 4 -3 16 10 26 28 13 24 16 41 9 62 l-8 29 -4 -35 c-2 -19 -8 -41
-14 -47 -16 -19 -39 -15 -45 7 -5 19 -6 20 -19 3 -12 -17 -13 -17 -14 -1 0 19
51 131 62 136 4 2 4 10 1 18 -3 8 -1 14 5 14 6 0 16 17 23 38 18 58 30 77 39
63 5 -9 9 -8 13 4 4 9 3 13 -3 10 -6 -3 -10 -1 -10 5 0 20 255 525 282 558 8
9 -28 12 -173 12 -170 0 -185 -1 -196 -19z m-2548 -121 c3 -5 1 -10 -4 -10 -6
0 -11 5 -11 10 0 6 2 10 4 10 3 0 8 -4 11 -10z m2512 -855 c-6 -7 -15 -11 -19
-8 -14 8 -8 19 12 20 16 1 17 -1 7 -12z m-2673 -51 c3 -8 2 -12 -4 -9 -6 3
-10 10 -10 16 0 14 7 11 14 -7z m2121 -34 c3 -5 1 -10 -4 -10 -6 0 -11 5 -11
10 0 6 2 10 4 10 3 0 8 -4 11 -10z m-95 -230 c0 -5 -5 -10 -11 -10 -5 0 -7 5
-4 10 3 6 8 10 11 10 2 0 4 -4 4 -10z m-997 -25 c-3 -9 -8 -14 -10 -11 -3 3
-2 9 2 15 9 16 15 13 8 -4z m953 -59 c0 -14 -5 -21 -9 -17 -4 4 -5 15 -1 24 9
24 12 21 10 -7z"/>
<path d="M4733 2293 c-20 -7 -15 -19 7 -20 11 -1 20 2 20 7 0 12 -13 18 -27
13z"/>
<path d="M4740 2250 c-9 -6 -10 -10 -3 -10 6 0 15 5 18 10 8 12 4 12 -15 0z"/>
<path d="M3571 2204 c0 -11 3 -14 6 -6 3 7 2 16 -1 19 -3 4 -6 -2 -5 -13z"/>
<path d="M4632 2180 c0 -14 2 -19 5 -12 2 6 2 18 0 25 -3 6 -5 1 -5 -13z"/>
<path d="M5155 2069 c-4 -6 -5 -12 -2 -15 2 -3 7 2 10 11 7 17 1 20 -8 4z"/>
<path d="M5004 1919 c-3 -6 -1 -16 5 -22 8 -8 11 -5 11 11 0 24 -5 28 -16 11z"/>
<path d="M5076 1915 c-3 -8 -1 -15 4 -15 6 0 10 7 10 15 0 8 -2 15 -4 15 -2 0
-6 -7 -10 -15z"/>
<path d="M5060 1871 c0 -11 -5 -21 -12 -23 -9 -3 -9 -6 -1 -11 7 -4 15 5 22
23 6 18 6 30 0 30 -5 0 -9 -9 -9 -19z"/>
<path d="M2577 1843 c-10 -9 -9 -23 1 -23 5 0 9 7 9 15 0 17 -1 18 -10 8z"/>
<path d="M2554 1785 c-3 -14 -14 -30 -23 -35 -15 -9 -15 -9 0 -10 9 0 21 6 26
13 14 18 23 57 12 57 -5 0 -11 -11 -15 -25z"/>
<path d="M4950 1750 c0 -5 5 -10 11 -10 5 0 7 5 4 10 -3 6 -8 10 -11 10 -2 0
-4 -4 -4 -10z"/>
<path d="M2499 1718 c-3 -45 -7 -61 -20 -69 -8 -5 -9 -9 -3 -9 18 0 37 28 31
45 -4 8 -2 17 3 20 13 8 13 25 0 25 -5 0 -10 -6 -11 -12z"/>
<path d="M2526 1714 c-3 -9 -2 -23 2 -31 7 -11 9 -6 10 16 1 34 -3 39 -12 15z"/>
<path d="M2507 1633 c-8 -15 -12 -33 -10 -40 2 -7 -1 -21 -6 -32 -7 -12 -7
-22 -2 -25 5 -4 12 13 16 36 4 24 12 51 17 61 5 10 7 21 5 24 -3 3 -12 -8 -20
-24z"/>
<path d="M4927 1572 c-10 -10 -17 -24 -17 -30 0 -22 21 -23 39 0 22 26 19 37
-4 18 -9 -8 -15 -9 -15 -2 0 6 8 16 18 21 9 6 12 11 6 11 -6 0 -18 -8 -27 -18z"/>
<path d="M2439 1521 c12 -8 12 -12 2 -24 -6 -8 -16 -30 -21 -49 -9 -30 -8 -31
5 -14 8 11 15 27 15 36 0 9 5 21 11 27 13 13 4 33 -14 33 -8 0 -7 -4 2 -9z"/>
<path d="M2470 1508 c0 -13 -5 -29 -12 -36 -9 -9 -9 -15 1 -24 10 -11 11 -10
6 5 -4 9 -3 17 3 17 13 0 22 49 11 56 -5 3 -9 -5 -9 -18z"/>
<path d="M2435 1419 c-4 -6 -5 -12 -2 -15 2 -3 7 2 10 11 7 17 1 20 -8 4z"/>
<path d="M3901 1344 c0 -11 3 -14 6 -6 3 7 2 16 -1 19 -3 4 -6 -2 -5 -13z"/>
<path d="M3191 1323 c11 -34 19 -42 19 -20 0 7 -7 22 -15 33 -13 17 -14 16 -4
-13z"/>
<path d="M2360 1251 c0 -6 4 -13 10 -16 6 -3 7 1 4 9 -7 18 -14 21 -14 7z"/>
<path d="M2320 1170 c-14 -11 -20 -20 -14 -20 6 0 19 9 29 20 23 25 17 25 -15
0z"/>
<path d="M2198 1082 c9 -10 19 -17 21 -16 6 5 -20 34 -30 34 -5 0 -1 -8 9 -18z"/>
<path d="M2227 1089 c7 -7 15 -10 18 -7 3 3 -2 9 -12 12 -14 6 -15 5 -6 -5z"/>
</g>
</svg>
